HIERARCHY
ROOT Hips
{
	OFFSET 0.000000 0.000000 0.000000 
	CHANNELS 6 Xposition Yposition Zposition Zrotation Yrotation Xrotation
	JOINT LeftUpLeg
	{
		OFFSET 1.363060 -1.794630 0.839290 
		CHANNELS 3 Zrotation Yrotation Xrotation
		JOINT LeftLeg
		{
			OFFSET 2.448110 -6.726130 0.000000 
			CHANNELS 3 Zrotation Yrotation Xrotation
			JOINT LeftFoot
			{
				OFFSET 2.562200 -7.039590 0.000000 
				CHANNELS 3 Zrotation Yrotation Xrotation
				JOINT LeftToeBase
				{
					OFFSET 0.157640 -0.433110 2.322550 
					CHANNELS 3 Zrotation Yrotation Xrotation
					End Site
					{
						OFFSET 0.000000 0.000000 0.000000 
					}
				}
			}
		}
	}
	JOINT RightUpLeg
	{
		OFFSET -1.305520 -1.794630 0.839290 
		CHANNELS 3 Zrotation Yrotation Xrotation
		JOINT RightLeg
		{
			OFFSET -2.542530 -6.985550 0.000000 
			CHANNELS 3 Zrotation Yrotation Xrotation
			JOINT RightFoot
			{
				OFFSET -2.568260 -7.056230 0.000000 
				CHANNELS 3 Zrotation Yrotation Xrotation
				JOINT RightToeBase
				{
					OFFSET -0.164730 -0.452590 2.363150 
					CHANNELS 3 Zrotation Yrotation Xrotation
					End Site
					{
						OFFSET 0.000000 0.000000 0.000000 
					}
				}
			}
		}
	}
	JOINT Spine
	{
		OFFSET 0.028270 2.035590 -0.193380 
		CHANNELS 3 Zrotation Yrotation Xrotation
		JOINT Spine1
		{
			OFFSET 0.056720 2.048850 -0.042750 
			CHANNELS 3 Zrotation Yrotation Xrotation
			JOINT Neck1
			{
				OFFSET -0.054170 1.746240 0.172020 
				CHANNELS 3 Zrotation Yrotation Xrotation
				JOINT Head
				{
					OFFSET 0.104070 1.761360 -0.123970 
					CHANNELS 3 Zrotation Yrotation Xrotation
					End Site
					{
						OFFSET 0.000000 0.000000 0.000000 
					}
				}
			}
			JOINT LeftArm
			{
				OFFSET 3.362410 1.200890 -0.311210 
				CHANNELS 3 Zrotation Yrotation Xrotation
				JOINT LeftForeArm
				{
					OFFSET 4.983000 -0.000000 -0.000000 
					CHANNELS 3 Zrotation Yrotation Xrotation
					JOINT LeftHand
					{
						OFFSET 3.483560 -0.000000 -0.000000 
						CHANNELS 3 Zrotation Yrotation Xrotation
						JOINT LeftHandIndex1
						{
							OFFSET 0.715260 -0.000000 -0.000000 
							CHANNELS 3 Zrotation Yrotation Xrotation
							End Site
							{
								OFFSET 0.000000 0.000000 0.000000 
							}
						}
					}
				}
			}
			JOINT RightArm
			{
				OFFSET -3.136600 1.374050 -0.404650 
				CHANNELS 3 Zrotation Yrotation Xrotation
				JOINT RightForeArm
				{
					OFFSET -5.241900 -0.000000 -0.000000 
					CHANNELS 3 Zrotation Yrotation Xrotation
					JOINT RightHand
					{
						OFFSET -3.444170 -0.000000 -0.000000 
						CHANNELS 3 Zrotation Yrotation Xrotation
						JOINT RightHandIndex1
						{
							OFFSET -0.622530 -0.000000 -0.000000 
							CHANNELS 3 Zrotation Yrotation Xrotation
							End Site
							{
								OFFSET 0.000000 0.000000 0.000000 
							}
						}
					}
				}
			}
		}
	}
}
MOTION
Frames: 7
Frame Time: 0.041667
11.883035 18.037524 0.133781 -101.098060 86.409331 -95.948591 -3.768747 0.866332 -29.230918 2.346216 12.070395 33.426739 -1.143294 7.023455 4.643831 4.872400 13.238700 40.268700 15.586360 -1.660294 -4.077854 0.605439 -7.485232 17.675096 1.245139 -7.289419 -0.849060 -0.050700 1.453000 -3.996300 0.639297 0.343056 -2.915588 1.611263 0.873255 3.394833 6.277136 2.123492 4.837738 -0.891300 1.181300 3.570800 -78.321141 2.829997 -58.916378 0.895260 -2.414075 -0.205876 -3.606904 -0.726782 63.990678 -7.125000 0.000000 0.000000 68.048644 15.554486 17.699764 -13.316863 19.419435 -4.642087 0.905542 -3.575803 -0.865531 7.125000 0.000000 0.000000 
12.102184 18.023483 0.119965 -96.339166 86.104434 -91.150952 -3.163684 0.458745 -29.463987 1.970147 11.506624 31.636168 -1.533385 7.955166 4.961946 4.902700 13.273400 40.400700 15.883786 -1.832814 -3.007970 0.739260 -7.060645 16.366237 1.163452 -7.142514 -0.568817 -0.063600 1.627500 -4.477300 0.651280 0.534052 -2.920912 1.454080 0.983505 3.378243 6.235923 2.136676 4.734828 -0.854300 1.176000 3.497700 -78.125110 3.645081 -64.612118 1.201590 -2.267416 -0.174017 -3.638865 -0.489762 68.310949 -7.125000 0.000000 0.000000 67.888219 16.984188 17.805431 -13.741089 19.770690 -4.863252 0.814190 -3.618763 -0.913513 7.125000 0.000000 0.000000 
12.317851 18.014497 0.107721 -91.238697 86.081460 -85.841658 -2.853122 0.071745 -29.832006 1.617304 10.936368 29.896411 -1.861830 8.749291 5.510073 4.942300 13.318600 40.573000 15.783194 -1.767450 -2.037615 0.870665 -6.595870 14.957865 1.065928 -6.975712 0.000973 -0.059800 1.578200 -4.341400 0.601995 0.740521 -2.902062 1.278337 1.082496 3.586528 6.299290 1.975931 4.868426 -0.811800 1.108400 3.588700 -77.720104 4.396314 -70.301172 1.540649 -2.170624 -0.142070 -3.651378 -0.268163 72.582074 -7.125000 0.000000 0.000000 68.013959 18.097803 18.350949 -14.674821 20.711483 -5.296719 0.801288 -3.560896 -1.414815 7.125000 0.000000 0.000000 
12.535428 18.005511 0.097837 -85.298098 86.025120 -79.678566 -2.496762 -0.368079 -30.112815 1.288152 10.363159 28.207051 -2.015309 9.164726 6.100462 5.107900 13.504300 41.286800 15.665727 -1.444862 -0.920395 0.998913 -6.109208 13.474833 1.058856 -7.057707 0.500592 -0.043200 1.340800 -3.687100 0.542146 0.953245 -2.860111 1.094498 1.183241 3.918182 6.159175 2.073002 4.723681 -0.856800 1.141100 3.569700 -77.205525 4.841941 -76.038666 1.940023 -2.155020 -0.117694 -3.655263 -0.083996 76.839096 -7.125000 0.000000 0.000000 68.192682 19.278906 18.960420 -15.602775 21.607027 -5.728532 0.894298 -3.495622 -1.938846 7.125000 0.000000 0.000000 
12.758958 17.991919 0.085705 -78.829427 85.592243 -73.200503 -1.772268 -0.940295 -30.069041 0.990634 9.800738 26.540404 -2.198317 9.646305 6.617959 5.313600 13.728500 42.160400 15.878426 -1.157991 0.482566 1.108010 -5.608327 11.949000 1.148290 -7.405628 0.881645 -0.134000 2.359300 -6.499700 0.523045 1.175666 -2.827301 0.889408 1.302064 4.062768 5.973204 2.130499 4.529756 -0.919000 1.147900 3.429500 -76.788453 5.310189 -81.877832 2.438578 -2.312743 -0.101704 -3.641491 0.099247 81.013446 -7.125000 0.000000 0.000000 68.317431 20.185949 19.826182 -16.482822 22.472490 -6.153198 0.969683 -3.430586 -2.654457 7.125000 0.000000 0.000000 
12.983050 17.977654 0.071777 -72.594943 85.157472 -67.000543 -1.046024 -1.722736 -29.894449 0.726600 9.276026 24.965551 -2.469543 10.322511 7.175187 5.619100 14.048800 43.433100 15.967188 -0.869749 2.038687 1.200649 -5.018492 10.216684 1.128422 -7.484169 1.425111 -0.150600 2.500800 -6.891800 0.483218 1.454283 -2.820013 0.673477 1.451622 4.052393 5.870981 2.112215 4.447920 -0.962600 1.130400 3.367900 -76.421644 6.083203 -87.642347 2.940937 -2.521918 -0.086179 -3.607151 0.329183 85.060787 -7.125000 0.000000 0.000000 68.484630 20.881812 20.559375 -17.379428 23.363634 -6.605838 0.975145 -3.363327 -3.278308 7.125000 0.000000 0.000000 
13.205681 17.965186 0.057287 -65.510258 84.912935 -59.841249 -0.537192 -2.697117 -29.745561 0.492632 8.807208 23.552031 -2.764689 11.038999 7.676801 5.843000 14.274500 44.348400 15.675146 -0.251774 3.841946 1.286025 -4.253935 8.027846 1.031190 -7.413548 2.329767 -0.235100 3.120800 -8.615200 0.397941 1.796980 -2.831059 0.516597 1.632205 4.022337 5.668236 2.127403 4.342543 -1.066900 1.124700 3.350200 -76.086784 7.137687 -93.296316 3.391671 -2.689045 -0.057814 -3.552676 0.542732 89.098428 -7.125000 0.000000 0.000000 68.699121 21.619706 20.878402 -18.236138 24.177579 -7.053645 0.965254 -3.304846 -3.695236 7.125000 0.000000 0.000000 
